<svg xmlns="http://www.w3.org/2000/svg" width="1200" height="630" viewBox="0 0 1200 630" role="img" aria-labelledby="title desc">
  <title id="title">A3S Labs</title>
  <desc id="desc">Software for systems that move, learn and operate.</desc>
  <rect width="1200" height="630" fill="#0b0d0f"/>
  <g opacity=".22" stroke="#f3f1ea" stroke-width="1">
    <path d="M0 90h1200M0 180h1200M0 270h1200M0 360h1200M0 450h1200M0 540h1200"/>
    <path d="M120 0v630M240 0v630M360 0v630M480 0v630M600 0v630M720 0v630M840 0v630M960 0v630M1080 0v630"/>
  </g>
  <rect x="74" y="68" width="58" height="58" fill="#f3f1ea"/>
  <text x="103" y="104" fill="#0b0d0f" text-anchor="middle" font-family="Arial, Helvetica, sans-serif" font-size="18" font-weight="800">A3</text>
  <text x="154" y="108" fill="#f3f1ea" font-family="Arial, Helvetica, sans-serif" font-size="28" font-weight="800" letter-spacing="-1">A3S LABS</text>
  <text x="76" y="268" fill="#f3f1ea" font-family="Arial, Helvetica, sans-serif" font-size="74" font-weight="700" letter-spacing="-4">Software for systems</text>
  <text x="76" y="346" fill="#d6ff45" font-family="Arial, Helvetica, sans-serif" font-size="74" font-weight="700" letter-spacing="-4">that move, learn and operate.</text>
  <text x="78" y="424" fill="#b7b8b2" font-family="Arial, Helvetica, sans-serif" font-size="25">Products · applied intelligence · infrastructure · education · simulation</text>
  <g font-family="monospace" font-size="17" fill="#7f837d">
    <text x="78" y="548">A3SLABS.CO.KE</text>
    <text x="950" y="548">KENYA / 2026</text>
  </g>
  <rect x="76" y="582" width="250" height="4" fill="#d6ff45"/>
</svg>
